<svg width="32" height="32" viewBox="0 0 32 32" xmlns="http://www.w3.org/2000/svg">
  <defs>
    <!-- Premium background -->
    <radialGradient id="faviconBg" cx="50%" cy="30%" r="80%">
      <stop offset="0%" style="stop-color:#1a1a2e;stop-opacity:1" />
      <stop offset="50%" style="stop-color:#0f0f1a;stop-opacity:1" />
      <stop offset="100%" style="stop-color:#000000;stop-opacity:1" />
    </radialGradient>
    
    <!-- Metallic B gradient -->
    <linearGradient id="faviconB" x1="0%" y1="0%" x2="100%" y2="100%">
      <stop offset="0%" style="stop-color:#e2e2e2;stop-opacity:1" />
      <stop offset="50%" style="stop-color:#8fa4d3;stop-opacity:1" />
      <stop offset="100%" style="stop-color:#4a5a8a;stop-opacity:1" />
    </linearGradient>
    
    <!-- Metallic W gradient -->
    <linearGradient id="faviconW" x1="100%" y1="0%" x2="0%" y2="100%">
      <stop offset="0%" style="stop-color:#ffcc70;stop-opacity:1" />
      <stop offset="50%" style="stop-color:#d4a574;stop-opacity:1" />
      <stop offset="100%" style="stop-color:#8b6914;stop-opacity:1" />
    </linearGradient>
    
    <!-- Glow effect -->
    <filter id="faviconGlow">
      <feGaussianBlur stdDeviation="1" result="coloredBlur"/>
      <feMerge>
        <feMergeNode in="coloredBlur"/>
        <feMergeNode in="SourceGraphic"/>
      </feMerge>
    </filter>
    
    <!-- Shadow -->
    <filter id="faviconShadow">
      <feDropShadow dx="1" dy="1" stdDeviation="1" flood-color="#000000" flood-opacity="0.6"/>
    </filter>
  </defs>
  
  <!-- Dark background -->
  <rect width="32" height="32" rx="6" fill="url(#faviconBg)"/>
  
  <!-- 3D B letter -->
  <g transform="translate(9,16)">
    <!-- Shadow -->
    <path d="M 1,-6 L 1,6 L 4,6 Q 6,6 6,4 Q 6,2 5,2 L 4,2 Q 6,2 6,-2 Q 6,-6 4,-6 Z M 2,-4 L 4,-4 Q 4.5,-4 4.5,-3 Q 4.5,-2 4,-2 L 2,-2 Z M 2,1 L 4,1 Q 5,1 5,3 Q 5,5 4,5 L 2,5 Z" fill="#000000" opacity="0.4" transform="translate(0.5,0.5)"/>
    <!-- Main B -->
    <path d="M 0,-6 L 0,6 L 3,6 Q 5,6 5,4 Q 5,2 4,2 L 3,2 Q 5,2 5,-2 Q 5,-6 3,-6 Z M 1,-4 L 3,-4 Q 3.5,-4 3.5,-3 Q 3.5,-2 3,-2 L 1,-2 Z M 1,1 L 3,1 Q 4,1 4,3 Q 4,5 3,5 L 1,5 Z" fill="url(#faviconB)" filter="url(#faviconShadow)"/>
  </g>
  
  <!-- 3D W letter -->
  <g transform="translate(23,16)">
    <!-- Shadow -->
    <path d="M -5,-6 L -4,6 L -2.5,6 L -1.5,-2 L -0.5,6 L 1,6 L 2,-6 L 0.5,-6 L 0,2 L -1,-6 L -2.5,-6 L -3.5,2 L -4.5,-6 Z" fill="#000000" opacity="0.4" transform="translate(0.5,0.5)"/>
    <!-- Main W -->
    <path d="M -5.5,-6 L -4.5,6 L -3,6 L -2,-2 L -1,6 L 0.5,6 L 1.5,-6 L 0,-6 L -0.5,2 L -1.5,-6 L -3,-6 L -4,2 L -5,-6 Z" fill="url(#faviconW)" filter="url(#faviconShadow)"/>
  </g>
  
  <!-- Center connecting element -->
  <circle cx="16" cy="16" r="2" fill="none" stroke="#667eea" stroke-width="0.5" opacity="0.6" filter="url(#faviconGlow)"/>
  <circle cx="16" cy="16" r="1" fill="#00d4ff" opacity="0.8" filter="url(#faviconGlow)"/>
  
  <!-- Subtle border -->
  <rect width="30" height="30" x="1" y="1" rx="5" fill="none" stroke="#667eea" stroke-width="0.3" opacity="0.3"/>
</svg>
