<svg width="120" height="120" viewBox="0 0 120 120" xmlns="http://www.w3.org/2000/svg">
  <defs>
    <!-- Premium dark background -->
    <radialGradient id="bgGradient" cx="50%" cy="30%" r="80%">
      <stop offset="0%" style="stop-color:#1a1a2e;stop-opacity:1" />
      <stop offset="50%" style="stop-color:#0f0f1a;stop-opacity:1" />
      <stop offset="100%" style="stop-color:#000000;stop-opacity:1" />
    </radialGradient>
    
    <!-- 3D metallic gradient for B -->
    <linearGradient id="bGradient" x1="0%" y1="0%" x2="100%" y2="100%">
      <stop offset="0%" style="stop-color:#c9d6ff;stop-opacity:1" />
      <stop offset="25%" style="stop-color:#e2e2e2;stop-opacity:1" />
      <stop offset="50%" style="stop-color:#8fa4d3;stop-opacity:1" />
      <stop offset="75%" style="stop-color:#667db6;stop-opacity:1" />
      <stop offset="100%" style="stop-color:#4a5a8a;stop-opacity:1" />
    </linearGradient>
    
    <!-- 3D metallic gradient for W -->
    <linearGradient id="wGradient" x1="100%" y1="0%" x2="0%" y2="100%">
      <stop offset="0%" style="stop-color:#ffd89b;stop-opacity:1" />
      <stop offset="25%" style="stop-color:#ffcc70;stop-opacity:1" />
      <stop offset="50%" style="stop-color:#d4a574;stop-opacity:1" />
      <stop offset="75%" style="stop-color:#b8935a;stop-opacity:1" />
      <stop offset="100%" style="stop-color:#8b6914;stop-opacity:1" />
    </linearGradient>
    
    <!-- Glow effects -->
    <filter id="outerGlow">
      <feGaussianBlur stdDeviation="4" result="coloredBlur"/>
      <feMerge>
        <feMergeNode in="coloredBlur"/>
        <feMergeNode in="SourceGraphic"/>
      </feMerge>
    </filter>
    
    <filter id="innerGlow">
      <feGaussianBlur stdDeviation="2" result="coloredBlur"/>
      <feMerge>
        <feMergeNode in="coloredBlur"/>
        <feMergeNode in="SourceGraphic"/>
      </feMerge>
    </filter>
    
    <!-- Shadow effect -->
    <filter id="dropShadow">
      <feDropShadow dx="2" dy="4" stdDeviation="3" flood-color="#000000" flood-opacity="0.8"/>
    </filter>
    
    <!-- Accent gradient -->
    <linearGradient id="accentGrad" x1="0%" y1="0%" x2="100%" y2="100%">
      <stop offset="0%" style="stop-color:#00d4ff;stop-opacity:0.8" />
      <stop offset="50%" style="stop-color:#667eea;stop-opacity:0.6" />
      <stop offset="100%" style="stop-color:#764ba2;stop-opacity:0.4" />
    </linearGradient>
  </defs>
  
  <!-- Dark premium background -->
  <rect width="120" height="120" rx="20" fill="url(#bgGradient)"/>
  
  <!-- Subtle geometric pattern -->
  <g opacity="0.08">
    <polygon points="20,20 40,10 60,20 60,40 40,50 20,40" fill="#00d4ff"/>
    <polygon points="60,20 80,10 100,20 100,40 80,50 60,40" fill="#667eea"/>
    <polygon points="20,80 40,70 60,80 60,100 40,110 20,100" fill="#764ba2"/>
    <polygon points="60,80 80,70 100,80 100,100 80,110 60,100" fill="#00d4ff"/>
  </g>
  
  <!-- Ambient light effects -->
  <g opacity="0.15">
    <circle cx="30" cy="30" r="25" fill="url(#accentGrad)"/>
    <circle cx="90" cy="90" r="20" fill="url(#accentGrad)"/>
  </g>
  
  <!-- 3D Letter B -->
  <g transform="translate(35,60)">
    <!-- Shadow layer -->
    <path d="M 2,-22 L 2,22 L 18,22 Q 26,22 26,16 Q 26,10 20,10 L 18,10 Q 24,10 24,-6 Q 24,-22 18,-22 Z M 8,-16 L 16,-16 Q 18,-16 18,-12 Q 18,-8 16,-8 L 8,-8 Z M 8,4 L 17,4 Q 20,4 20,10 Q 20,16 17,16 L 8,16 Z" fill="#000000" opacity="0.6" transform="translate(1,2)"/>
    
    <!-- Main letter with 3D gradient -->
    <path d="M 0,-22 L 0,22 L 16,22 Q 24,22 24,16 Q 24,10 18,10 L 16,10 Q 22,10 22,-6 Q 22,-22 16,-22 Z M 6,-16 L 14,-16 Q 16,-16 16,-12 Q 16,-8 14,-8 L 6,-8 Z M 6,4 L 15,4 Q 18,4 18,10 Q 18,16 15,16 L 6,16 Z" 
          fill="url(#bGradient)" 
          filter="url(#dropShadow)"/>
    
    <!-- Highlight on B -->
    <path d="M 2,-20 L 2,-18 L 14,-18 Q 15,-18 15,-17 L 15,-15" stroke="#ffffff" stroke-width="1" fill="none" opacity="0.6"/>
  </g>
  
  <!-- 3D Letter W -->
  <g transform="translate(85,60)">
    <!-- Shadow layer -->
    <path d="M -20,-22 L -14,22 L -8,22 L -4,-8 L 0,22 L 6,22 L 12,-22 L 6,-22 L 2,8 L -2,-22 L -8,-22 L -12,8 L -16,-22 Z" fill="#000000" opacity="0.6" transform="translate(1,2)"/>
    
    <!-- Main letter with 3D gradient -->
    <path d="M -22,-22 L -16,22 L -10,22 L -6,-8 L -2,22 L 4,22 L 10,-22 L 4,-22 L 0,8 L -4,-22 L -10,-22 L -14,8 L -18,-22 Z" 
          fill="url(#wGradient)" 
          filter="url(#dropShadow)"/>
    
    <!-- Highlight on W -->
    <path d="M -20,-20 L -18,-20 L -16,-10" stroke="#ffffff" stroke-width="1" fill="none" opacity="0.6"/>
    <path d="M 2,-20 L 4,-20 L 2,-10" stroke="#ffffff" stroke-width="1" fill="none" opacity="0.6"/>
  </g>
  
  <!-- Connecting element between letters -->
  <g transform="translate(60,60)" opacity="0.7">
    <circle cx="0" cy="0" r="8" fill="none" stroke="url(#accentGrad)" stroke-width="2" filter="url(#innerGlow)"/>
    <circle cx="0" cy="0" r="3" fill="url(#accentGrad)" filter="url(#innerGlow)"/>
    
    <!-- Connecting lines -->
    <line x1="-15" y1="0" x2="-8" y2="0" stroke="url(#accentGrad)" stroke-width="1.5" opacity="0.8"/>
    <line x1="8" y1="0" x2="15" y2="0" stroke="url(#accentGrad)" stroke-width="1.5" opacity="0.8"/>
  </g>
  
  <!-- Floating particles with glow -->
  <g filter="url(#innerGlow)">
    <circle cx="15" cy="25" r="1.5" fill="#00d4ff" opacity="0.8"/>
    <circle cx="105" cy="30" r="1" fill="#667eea" opacity="0.6"/>
    <circle cx="25" cy="95" r="1.2" fill="#764ba2" opacity="0.7"/>
    <circle cx="95" cy="15" r="1" fill="#ffd89b" opacity="0.5"/>
  </g>
  
  <!-- Premium border with subtle glow -->
  <rect width="118" height="118" x="1" y="1" rx="19" fill="none" stroke="url(#accentGrad)" stroke-width="0.5" opacity="0.3"/>
</svg>
