<svg width="120" height="120" viewBox="0 0 120 120" xmlns="http://www.w3.org/2000/svg">
  <defs>
    <!-- Main background gradient -->
    <linearGradient id="bgGradient" x1="0%" y1="0%" x2="100%" y2="100%">
      <stop offset="0%" style="stop-color:#0f0f23;stop-opacity:1" />
      <stop offset="50%" style="stop-color:#1a1a3a;stop-opacity:1" />
      <stop offset="100%" style="stop-color:#2d1b69;stop-opacity:1" />
    </linearGradient>
    
    <!-- Accent gradient for geometric elements -->
    <linearGradient id="accentGradient" x1="0%" y1="0%" x2="100%" y2="0%">
      <stop offset="0%" style="stop-color:#00d4ff;stop-opacity:1" />
      <stop offset="50%" style="stop-color:#5b73ff;stop-opacity:1" />
      <stop offset="100%" style="stop-color:#667eea;stop-opacity:1" />
    </linearGradient>
    
    <!-- Text gradient -->
    <linearGradient id="textGradient" x1="0%" y1="0%" x2="100%" y2="0%">
      <stop offset="0%" style="stop-color:#ffffff;stop-opacity:1" />
      <stop offset="100%" style="stop-color:#e0e7ff;stop-opacity:1" />
    </linearGradient>
    
    <!-- Glow effect -->
    <filter id="glow">
      <feGaussianBlur stdDeviation="3" result="coloredBlur"/>
      <feMerge> 
        <feMergeNode in="coloredBlur"/>
        <feMergeNode in="SourceGraphic"/>
      </feMerge>
    </filter>
  </defs>
  
  <!-- Main container with rounded corners -->
  <rect x="5" y="5" width="110" height="110" rx="25" ry="25" fill="url(#bgGradient)" stroke="url(#accentGradient)" stroke-width="2"/>
  
  <!-- Geometric pattern background -->
  <g opacity="0.1">
    <!-- Hexagonal grid pattern -->
    <polygon points="30,25 40,20 50,25 50,35 40,40 30,35" fill="#00d4ff"/>
    <polygon points="70,25 80,20 90,25 90,35 80,40 70,35" fill="#5b73ff"/>
    <polygon points="30,85 40,80 50,85 50,95 40,100 30,95" fill="#667eea"/>
    <polygon points="70,85 80,80 90,85 90,95 80,100 70,95" fill="#00d4ff"/>
  </g>
  
  <!-- Code-like elements -->
  <g stroke="url(#accentGradient)" stroke-width="2" fill="none" opacity="0.6">
    <!-- Brackets and code symbols -->
    <path d="M 20 35 L 15 40 L 20 45" />
    <path d="M 100 35 L 105 40 L 100 45" />
    <path d="M 25 60 L 30 55 L 35 60" />
    <path d="M 85 60 L 90 55 L 95 60" />
  </g>
  
  <!-- Central diamond/node element -->
  <g transform="translate(60,35)">
    <polygon points="0,-8 8,0 0,8 -8,0" fill="url(#accentGradient)" opacity="0.8" filter="url(#glow)"/>
    <circle cx="0" cy="0" r="3" fill="#ffffff"/>
  </g>
  
  <!-- Connection lines (like a network/tech diagram) -->
  <g stroke="url(#accentGradient)" stroke-width="1.5" opacity="0.4">
    <line x1="60" y1="43" x2="45" y2="60" />
    <line x1="60" y1="43" x2="75" y2="60" />
    <line x1="45" y1="60" x2="60" y2="75" />
    <line x1="75" y1="60" x2="60" y2="75" />
  </g>
  
  <!-- Side nodes -->
  <circle cx="45" cy="60" r="4" fill="url(#accentGradient)" opacity="0.7"/>
  <circle cx="75" cy="60" r="4" fill="url(#accentGradient)" opacity="0.7"/>
  <circle cx="60" cy="75" r="4" fill="url(#accentGradient)" opacity="0.7"/>
  
  <!-- Stylized initials with modern typography -->
  <g transform="translate(60,95)">
    <!-- Custom B -->
    <path d="M -15,-8 L -15,8 L -8,8 Q -3,8 -3,4 Q -3,0 -8,0 L -10,0 Q -5,0 -5,-4 Q -5,-8 -10,-8 Z M -12,-5 L -8,-5 Q -6,-5 -6,-4 Q -6,-3 -8,-3 L -12,-3 Z M -12,2 L -8,2 Q -5,2 -5,4 Q -5,6 -8,6 L -12,6 Z" fill="url(#textGradient)" filter="url(#glow)"/>
    
    <!-- Custom W -->
    <path d="M 3,-8 L 6,8 L 9,8 L 12,-8 L 15,-8 L 11,8 L 7,8 L 4,0 L 1,8 L -3,8 L -7,-8 L -4,-8 L -1,8 L 2,8 L 5,-8 Z" fill="url(#textGradient)" filter="url(#glow)"/>
  </g>
  
  <!-- Floating particles/dots for tech feel -->
  <g fill="url(#accentGradient)" opacity="0.6">
    <circle cx="25" cy="30" r="1.5"/>
    <circle cx="95" cy="25" r="1"/>
    <circle cx="20" cy="75" r="1.5"/>
    <circle cx="100" cy="70" r="1"/>
    <circle cx="85" cy="95" r="1.5"/>
  </g>
</svg>
